<svg width="192" height="328" viewBox="0 0 192 328" fill="none" xmlns="http://www.w3.org/2000/svg">
<g clip-path="url(#clip0_1_2)">
<mask id="mask0_1_2" style="mask-type:luminance" maskUnits="userSpaceOnUse" x="0" y="0" width="192" height="328">
<path d="M191.98 0H0V327.957H191.98V0Z" fill="white"/>
</mask>
<g mask="url(#mask0_1_2)">
<path d="M114.561 280.577C114.51 275.469 111.583 270.847 106.889 268.475L90.6867 259.504C90.6358 259.476 90.5809 259.449 90.526 259.421C87.4501 257.969 85.538 255.175 85.538 252.122V245.479C87.7401 244.509 89.2839 242.305 89.2839 239.749V234.79C89.2839 231.338 86.4705 228.528 83.0145 228.528H65.3858C66.6671 217.588 68.7948 204.256 70.9891 194.307C71.0361 194.091 71.087 193.876 71.134 193.661C71.377 192.581 71.6199 191.508 71.8668 190.44C72.0039 189.864 72.1371 189.289 72.2782 188.717C87.6931 124.523 120.999 76.0271 150.685 43.4502C150.736 43.3915 150.791 43.3328 150.845 43.2741C151.316 42.7535 151.786 42.2408 152.256 41.7319C152.785 41.1566 153.31 40.589 153.839 40.0254C154.231 39.6066 154.619 39.1917 155.011 38.7807C155.512 38.2484 156.01 37.7239 156.504 37.2073C157.287 36.3775 158.075 35.5594 158.866 34.7453C159.76 33.6689 159.689 32.072 158.67 31.0856C158.09 30.5259 157.326 30.2754 156.578 30.3302C156.116 30.3654 155.657 30.522 155.257 30.796C155.112 30.8938 154.975 31.0073 154.85 31.1404C154.815 31.1757 154.779 31.2148 154.744 31.25C154.435 31.571 154.129 31.888 153.819 32.209C153.761 32.2716 153.698 32.3342 153.639 32.3968C152.942 33.1249 152.244 33.8529 151.547 34.5887C151.182 34.9723 150.818 35.3559 150.454 35.7434C150.089 36.1309 149.733 36.5184 149.368 36.9059C149.008 37.2934 148.647 37.6809 148.291 38.0723C147.574 38.8512 146.856 39.6301 146.147 40.4168C145.438 41.1996 144.733 41.9863 144.027 42.777C143.781 43.051 143.534 43.3328 143.287 43.6107C142.484 44.5188 141.684 45.4307 140.889 46.3466C140.473 46.8242 140.062 47.3017 139.651 47.7831C139.388 48.0845 139.129 48.3898 138.871 48.6912C138.51 49.1139 138.158 49.5327 137.801 49.9554C137.46 50.3547 137.123 50.7578 136.782 51.1649C136.085 52.0025 135.387 52.8401 134.698 53.6816C134.051 54.4644 133.409 55.2551 132.774 56.0457C132.194 56.762 131.618 57.4822 131.05 58.2024C130.552 58.8247 130.058 59.451 129.569 60.0811C129.365 60.3395 129.161 60.5978 128.961 60.8561C128.487 61.4628 128.017 62.0695 127.547 62.6801C127.022 63.3611 126.501 64.0461 125.979 64.735C125.662 65.1538 125.345 65.5726 125.031 65.9914C124.557 66.6216 124.087 67.2517 123.621 67.8858C123.154 68.516 122.684 69.1501 122.226 69.7841C121.881 70.2578 121.536 70.7314 121.195 71.205C120.984 71.4985 120.768 71.796 120.56 72.0895C120.196 72.5945 119.835 73.1033 119.475 73.6082C119.169 74.0348 118.872 74.4615 118.57 74.892C118.245 75.3578 117.915 75.8197 117.594 76.2854C117.32 76.6768 117.046 77.0722 116.779 77.4675C116.481 77.898 116.187 78.3286 115.89 78.7591C115.455 79.3971 115.016 80.043 114.585 80.6849C114.13 81.3581 113.68 82.0274 113.233 82.7045C112.665 83.5617 112.104 84.4189 111.544 85.28C111.25 85.7301 110.96 86.1802 110.67 86.6343C110.114 87.4993 109.558 88.3682 109.009 89.2371C108.723 89.6873 108.441 90.1413 108.155 90.5953C107.61 91.4682 107.065 92.341 106.529 93.2217C105.976 94.118 105.432 95.0143 104.891 95.9185C104.628 96.3568 104.366 96.7952 104.107 97.2375C103.88 97.6172 103.656 97.9968 103.429 98.3804C103.022 99.0693 102.618 99.7621 102.215 100.455C101.454 101.762 100.706 103.073 99.9654 104.392C99.5265 105.167 99.0955 105.942 98.6684 106.717C98.4176 107.171 98.1669 107.629 97.9161 108.087C97.5047 108.843 97.0932 109.598 96.6857 110.358C96.3527 110.976 96.0235 111.59 95.6983 112.209C83.1791 135.866 73.7398 160.516 67.4704 185.856C66.9414 187.993 66.4359 190.142 65.95 192.291C63.4384 203.427 60.4682 217.11 59.1595 228.535H34.7442C31.2882 228.535 28.4748 231.346 28.4748 234.798V239.757C28.4748 242.313 30.0186 244.517 32.2207 245.487V252.129C32.2207 255.179 30.3086 257.977 27.2327 259.429C27.1778 259.457 27.1269 259.48 27.072 259.511L10.8696 268.482C6.17927 270.854 3.25224 275.477 3.20131 280.585L0.0117551 313.878C0.00391837 313.964 0 314.054 0 314.14C0 321.757 6.73176 327.957 15.0034 327.957H102.751C111.027 327.957 117.755 321.757 117.755 314.14C117.755 314.054 117.751 313.964 117.743 313.878L114.561 280.577ZM33.9997 234.794C33.9997 234.387 34.3327 234.058 34.7363 234.058H83.0184C83.426 234.058 83.7551 234.391 83.7551 234.794V239.753C83.7551 240.16 83.422 240.489 83.0184 240.489H34.7363C34.3288 240.489 33.9997 240.156 33.9997 239.753V234.794ZM102.751 322.43H15.0034C9.82727 322.43 5.60718 318.778 5.53273 314.262L8.71445 280.98C8.72229 280.894 8.7262 280.804 8.7262 280.718C8.7262 277.641 10.5169 274.831 13.3969 273.391C13.4322 273.375 13.4674 273.356 13.4988 273.336L29.6738 264.381C34.654 261.993 37.7456 257.308 37.7456 252.126V246.016H80.0131V252.126C80.0131 257.308 83.1047 261.993 88.0849 264.381L104.26 273.336C104.295 273.356 104.327 273.371 104.362 273.391C107.242 274.831 109.032 277.638 109.032 280.718C109.032 280.804 109.036 280.894 109.044 280.98L112.226 314.262C112.152 318.778 107.931 322.43 102.755 322.43H102.751Z" fill="#333333"/>
<path d="M36.4291 268.424L20.2462 277.383L20.1522 277.43C17.28 278.882 15.5481 281.583 15.5167 284.655V284.89L13.6869 304.014C13.5419 305.533 14.6586 306.884 16.1789 307.028C16.2691 307.036 16.3592 307.04 16.4454 307.04C17.856 307.04 19.0589 305.968 19.1961 304.539L21.0377 285.297L21.0534 284.706C21.0612 283.724 21.6451 282.871 22.6521 282.358L22.7892 282.287L39.1092 273.254C40.4454 272.514 40.9273 270.831 40.1868 269.496C39.4462 268.162 37.7613 267.68 36.4251 268.42L36.4291 268.424Z" fill="#333333"/>
<path d="M191.35 0.962873C190.68 0.164401 189.606 -0.180038 188.595 0.0861196C169.634 5.07264 154.278 11.0377 140.27 18.858C123.577 28.1775 108.77 40.2133 94.993 55.6504C94.9812 55.6661 94.9695 55.6817 94.9538 55.6974C94.9185 55.7404 94.8833 55.7796 94.8519 55.8265C94.8284 55.8578 94.8049 55.8892 94.7814 55.9205C94.754 55.9596 94.7304 55.9948 94.7069 56.034C94.6834 56.0731 94.6599 56.1123 94.6364 56.1553C94.6168 56.1905 94.6011 56.2219 94.5855 56.2571C94.562 56.3041 94.5424 56.351 94.5228 56.398C94.511 56.4293 94.4953 56.4645 94.4836 56.4958C94.464 56.5428 94.4483 56.5937 94.4327 56.6407C94.4209 56.6759 94.4131 56.7111 94.4013 56.7463C94.3895 56.7933 94.3778 56.8403 94.366 56.8872C94.3582 56.9264 94.3504 56.9694 94.3425 57.0125C94.3347 57.0556 94.3308 57.0947 94.3229 57.1377C94.319 57.1847 94.3151 57.2317 94.3112 57.2787C94.3112 57.3139 94.3073 57.353 94.3073 57.3882C94.3073 57.4391 94.3073 57.49 94.3073 57.5409C94.3073 57.5761 94.3073 57.6114 94.3112 57.6466C94.3112 57.6975 94.319 57.7483 94.3269 57.7992C94.3308 57.8384 94.3386 57.8736 94.3425 57.9127C94.3504 57.9597 94.3582 58.0028 94.37 58.0497C94.3817 58.0928 94.3935 58.1398 94.4052 58.1828C94.417 58.2219 94.4287 58.2572 94.4405 58.2963C94.4562 58.3472 94.4758 58.3981 94.4993 58.449C94.5071 58.4685 94.511 58.4881 94.5189 58.5077C94.5306 58.5351 94.5463 58.5664 94.558 58.5938C94.558 58.5977 94.558 58.6016 94.5659 58.6055C95.7806 61.4198 97.4145 64.2457 99.1543 66.8055C96.0627 66.0501 92.7478 65.4395 89.6836 65.1029C88.7863 65.0051 87.9007 65.3573 87.3208 66.0501C83.0929 71.0758 79.8015 75.4987 76.4434 82.0156C67.6271 99.1358 61.5027 116.119 58.2426 132.496C55.4292 146.621 54.8846 159.902 56.6596 170.901C56.8908 172.329 58.2073 173.316 59.6336 173.151C59.6728 173.147 59.7159 173.139 59.7551 173.135C61.2284 172.897 62.2276 171.511 61.9886 170.043C60.2057 159.021 58.513 128.621 81.2434 84.4854C84.1391 78.8648 86.8976 75.0212 90.5182 70.6413C96.6465 71.4711 102.975 73.2833 105.843 74.6767C107.026 75.2521 108.456 74.892 109.221 73.8196C109.985 72.7471 109.867 71.2793 108.935 70.3478C106.282 67.6901 102.587 62.8327 100.193 57.9323C128.679 26.5688 158.459 14.1337 184.524 6.77918C178.039 22.2711 174.312 37.8922 170.696 53.0514C169.681 57.3021 168.635 61.682 167.553 65.9483C158.792 67.9015 151.39 70.61 145.54 74.0114C144.451 74.6415 143.945 75.941 144.317 77.1426C144.69 78.3442 145.846 79.1271 147.099 79.0331C148.773 78.904 151.911 79.1623 155.289 79.7063C158.134 80.1604 160.88 80.7631 163.263 81.452C157.781 103.199 148.451 122.612 135.513 139.216C118.617 138.179 107.939 140.966 100.487 143.541C99.3149 143.948 98.5665 145.099 98.6802 146.336C98.7938 147.573 99.7342 148.571 100.961 148.759C103.331 149.123 113.378 151.968 121.168 155.573C115.455 162.364 102.638 172.689 90.5182 180.079C89.2447 180.854 88.8451 182.514 89.6209 183.786C90.1891 184.713 91.2235 185.179 92.2384 185.062C92.6145 185.019 92.9868 184.893 93.3316 184.686C105.855 177.05 122.073 164.446 127.515 156.109C127.621 155.953 127.707 155.788 127.778 155.62C127.813 155.538 127.841 155.456 127.864 155.373C127.864 155.362 127.868 155.354 127.872 155.342C127.892 155.268 127.911 155.193 127.927 155.119C127.927 155.103 127.931 155.088 127.935 155.072C127.946 155.002 127.958 154.935 127.962 154.865C127.962 154.845 127.962 154.829 127.966 154.81C127.97 154.743 127.974 154.673 127.974 154.606C127.974 154.587 127.974 154.571 127.974 154.551C127.974 154.481 127.97 154.414 127.962 154.344C127.962 154.328 127.962 154.313 127.958 154.297C127.95 154.227 127.939 154.152 127.927 154.082C127.927 154.07 127.923 154.058 127.919 154.046C127.903 153.972 127.884 153.898 127.864 153.823C127.864 153.816 127.86 153.808 127.856 153.804C127.833 153.726 127.805 153.651 127.774 153.577C127.774 153.577 127.774 153.569 127.77 153.565C127.739 153.491 127.704 153.412 127.664 153.342C127.664 153.342 127.664 153.334 127.66 153.334C127.621 153.264 127.582 153.193 127.535 153.123C127.535 153.119 127.527 153.115 127.527 153.107C127.484 153.041 127.437 152.978 127.39 152.915C127.382 152.907 127.378 152.9 127.37 152.892C127.323 152.833 127.272 152.778 127.222 152.727C127.21 152.716 127.202 152.704 127.19 152.696C127.139 152.645 127.084 152.594 127.03 152.547C127.018 152.536 127.006 152.524 126.994 152.516C126.979 152.504 126.967 152.493 126.955 152.481C126.908 152.446 126.861 152.414 126.814 152.379C126.802 152.371 126.791 152.363 126.779 152.352C126.704 152.305 126.634 152.258 126.555 152.219C126.555 152.219 126.551 152.219 126.548 152.219C126.52 152.203 126.493 152.187 126.465 152.176C122.092 149.855 116.352 147.667 111.415 146.054C117.755 144.7 125.709 143.921 136.398 144.684C136.445 144.692 136.488 144.688 136.536 144.692C136.551 144.692 136.567 144.692 136.583 144.692C136.661 144.696 136.735 144.7 136.814 144.7C136.951 144.7 137.088 144.68 137.225 144.657C137.268 144.649 137.311 144.641 137.358 144.633C137.409 144.621 137.456 144.61 137.507 144.594C137.562 144.578 137.613 144.563 137.668 144.543C137.711 144.527 137.75 144.516 137.789 144.496C137.88 144.461 137.97 144.418 138.052 144.371C138.068 144.363 138.083 144.351 138.103 144.34C138.177 144.297 138.252 144.25 138.322 144.199C138.35 144.179 138.377 144.156 138.405 144.136C138.463 144.089 138.522 144.038 138.581 143.987C138.604 143.964 138.628 143.944 138.651 143.921C138.73 143.846 138.8 143.764 138.871 143.678C153.243 125.599 163.419 104.263 169.109 80.27C169.426 78.9274 168.682 77.5614 167.377 77.1035C164.524 76.1015 160.935 75.2091 157.174 74.5554C161.076 73.1189 165.453 71.8899 170.261 70.8879C170.269 70.8879 170.273 70.8879 170.28 70.884C170.288 70.884 170.292 70.884 170.3 70.8801C170.304 70.8801 170.308 70.8801 170.316 70.8801C170.39 70.8644 170.465 70.8449 170.539 70.8214C170.559 70.8136 170.582 70.8096 170.602 70.8018C170.661 70.7822 170.719 70.7588 170.778 70.7353C170.798 70.7274 170.821 70.7196 170.841 70.7079C170.911 70.6766 170.978 70.6452 171.045 70.6061C171.072 70.5904 171.096 70.5748 171.123 70.5591C171.166 70.5357 171.209 70.5083 171.248 70.4809C171.276 70.4613 171.303 70.4417 171.331 70.4221C171.37 70.3947 171.409 70.3634 171.444 70.3321C171.468 70.3125 171.491 70.2969 171.515 70.2773C171.636 70.1716 171.746 70.0581 171.848 69.9329C171.856 69.9211 171.864 69.9094 171.875 69.8977C171.918 69.8429 171.958 69.792 171.993 69.7333C172.005 69.7176 172.012 69.702 172.02 69.6902C172.056 69.6354 172.091 69.5767 172.122 69.518C172.13 69.5023 172.138 69.4906 172.146 69.4749C172.181 69.4084 172.212 69.3419 172.24 69.2714C172.24 69.2636 172.244 69.2597 172.248 69.2518C172.279 69.1775 172.302 69.1031 172.326 69.0287C172.338 68.9974 172.345 68.9622 172.353 68.9309C172.361 68.8996 172.373 68.8643 172.381 68.833V68.8565C172.385 68.8174 172.396 68.7821 172.404 68.743C173.635 63.9796 174.806 59.0596 175.943 54.304C179.904 37.7005 184.003 20.5293 191.718 3.82407C192.157 2.87686 192.008 1.76135 191.334 0.958959L191.35 0.962873Z" fill="#333333"/>
</g>
</g>
<defs>
<clipPath id="clip0_1_2">
<rect width="192" height="328" fill="white"/>
</clipPath>
</defs>
</svg>
